<svg width="146" height="24" viewBox="0 0 146 24" fill="none" xmlns="http://www.w3.org/2000/svg">
<path d="M11.2074 10.3438C11.1278 9.59943 10.7926 9.01989 10.2017 8.60511C9.61648 8.19034 8.85511 7.98295 7.91761 7.98295C7.25852 7.98295 6.69318 8.08239 6.22159 8.28125C5.75 8.48011 5.3892 8.75 5.1392 9.09091C4.8892 9.43182 4.76136 9.82102 4.75568 10.2585C4.75568 10.6222 4.83807 10.9375 5.00284 11.2045C5.1733 11.4716 5.40341 11.6989 5.69318 11.8864C5.98295 12.0682 6.30398 12.2216 6.65625 12.3466C7.00852 12.4716 7.36364 12.5767 7.72159 12.6619L9.35795 13.071C10.017 13.2244 10.6506 13.4318 11.2585 13.6932C11.8722 13.9545 12.4205 14.2841 12.9034 14.6818C13.392 15.0795 13.7784 15.5597 14.0625 16.1222C14.3466 16.6847 14.4886 17.3437 14.4886 18.0994C14.4886 19.1222 14.2273 20.0227 13.7045 20.8011C13.1818 21.5739 12.4261 22.179 11.4375 22.6165C10.4545 23.0483 9.2642 23.2642 7.86648 23.2642C6.50852 23.2642 5.32955 23.054 4.32955 22.6335C3.33523 22.2131 2.55682 21.5994 1.99432 20.7926C1.4375 19.9858 1.13636 19.0028 1.09091 17.8438H4.2017C4.24716 18.4517 4.43466 18.9574 4.7642 19.3608C5.09375 19.7642 5.52273 20.0653 6.05114 20.2642C6.58523 20.4631 7.18182 20.5625 7.84091 20.5625C8.52841 20.5625 9.13068 20.4602 9.64773 20.2557C10.1705 20.0455 10.5795 19.7557 10.875 19.3864C11.1705 19.0114 11.321 18.5739 11.3267 18.0739C11.321 17.6193 11.1875 17.2443 10.9261 16.9489C10.6648 16.6477 10.2983 16.3977 9.8267 16.1989C9.3608 15.9943 8.81534 15.8125 8.19034 15.6534L6.20455 15.142C4.76705 14.7727 3.63068 14.2131 2.79545 13.4631C1.96591 12.7074 1.55114 11.7045 1.55114 10.4545C1.55114 9.42614 1.82955 8.52557 2.38636 7.75284C2.94886 6.98011 3.71307 6.38068 4.67898 5.95454C5.64489 5.52273 6.73864 5.30682 7.96023 5.30682C9.19886 5.30682 10.2841 5.52273 11.2159 5.95454C12.1534 6.38068 12.8892 6.97443 13.4233 7.73579C13.9574 8.49148 14.233 9.3608 14.25 10.3438H11.2074ZM22.8814 23.2557C21.5746 23.2557 20.4524 22.9688 19.5149 22.3949C18.5831 21.821 17.8643 21.0284 17.3587 20.017C16.8587 19 16.6087 17.8295 16.6087 16.5057C16.6087 15.1761 16.8643 14.0028 17.3757 12.9858C17.8871 11.9631 18.6087 11.1676 19.5405 10.5994C20.478 10.0256 21.5859 9.73864 22.8643 9.73864C23.9268 9.73864 24.8672 9.93466 25.6854 10.3267C26.5092 10.7131 27.1655 11.2614 27.6541 11.9716C28.1428 12.6761 28.4212 13.5 28.4893 14.4432H25.5405C25.4212 13.8125 25.1371 13.2869 24.6882 12.8665C24.245 12.4403 23.6513 12.2273 22.907 12.2273C22.2763 12.2273 21.7223 12.3977 21.245 12.7386C20.7678 13.0739 20.3956 13.5568 20.1286 14.1875C19.8672 14.8182 19.7365 15.5739 19.7365 16.4545C19.7365 17.3466 19.8672 18.1136 20.1286 18.7557C20.3899 19.392 20.7564 19.8835 21.228 20.2301C21.7053 20.571 22.2649 20.7415 22.907 20.7415C23.3615 20.7415 23.7678 20.6562 24.1257 20.4858C24.4893 20.3097 24.7933 20.0568 25.0376 19.7273C25.282 19.3977 25.4496 18.9972 25.5405 18.5256H28.4893C28.4155 19.4517 28.1428 20.2727 27.6712 20.9886C27.1996 21.6989 26.5575 22.2557 25.745 22.6591C24.9325 23.0568 23.978 23.2557 22.8814 23.2557ZM34.108 15.3295V23H31.0227V5.54545H34.0398V12.1335H34.1932C34.5 11.3949 34.9744 10.8125 35.6165 10.3864C36.2642 9.95455 37.0881 9.73864 38.0881 9.73864C38.9972 9.73864 39.7898 9.92898 40.4659 10.3097C41.142 10.6903 41.6648 11.2472 42.0341 11.9801C42.4091 12.7131 42.5966 13.608 42.5966 14.6648V23H39.5114V15.142C39.5114 14.2614 39.2841 13.5767 38.8295 13.0881C38.3807 12.5937 37.75 12.3466 36.9375 12.3466C36.392 12.3466 35.9034 12.4659 35.4716 12.7045C35.0455 12.9375 34.7102 13.2756 34.4659 13.7188C34.2273 14.1619 34.108 14.6989 34.108 15.3295ZM51.4517 23.2557C50.1733 23.2557 49.0653 22.9744 48.1278 22.4119C47.1903 21.8494 46.4631 21.0625 45.946 20.0511C45.4347 19.0398 45.179 17.858 45.179 16.5057C45.179 15.1534 45.4347 13.9687 45.946 12.9517C46.4631 11.9347 47.1903 11.1449 48.1278 10.5824C49.0653 10.0199 50.1733 9.73864 51.4517 9.73864C52.7301 9.73864 53.8381 10.0199 54.7756 10.5824C55.7131 11.1449 56.4375 11.9347 56.9489 12.9517C57.4659 13.9687 57.7244 15.1534 57.7244 16.5057C57.7244 17.858 57.4659 19.0398 56.9489 20.0511C56.4375 21.0625 55.7131 21.8494 54.7756 22.4119C53.8381 22.9744 52.7301 23.2557 51.4517 23.2557ZM51.4688 20.7841C52.1619 20.7841 52.7415 20.5937 53.2074 20.2131C53.6733 19.8267 54.0199 19.3097 54.2472 18.6619C54.4801 18.0142 54.5966 17.2926 54.5966 16.4972C54.5966 15.696 54.4801 14.9716 54.2472 14.3239C54.0199 13.6705 53.6733 13.1506 53.2074 12.7642C52.7415 12.3778 52.1619 12.1847 51.4688 12.1847C50.7585 12.1847 50.1676 12.3778 49.696 12.7642C49.2301 13.1506 48.8807 13.6705 48.6477 14.3239C48.4205 14.9716 48.3068 15.696 48.3068 16.4972C48.3068 17.2926 48.4205 18.0142 48.6477 18.6619C48.8807 19.3097 49.2301 19.8267 49.696 20.2131C50.1676 20.5937 50.7585 20.7841 51.4688 20.7841ZM66.0533 23.2557C64.7749 23.2557 63.6669 22.9744 62.7294 22.4119C61.7919 21.8494 61.0646 21.0625 60.5476 20.0511C60.0362 19.0398 59.7805 17.858 59.7805 16.5057C59.7805 15.1534 60.0362 13.9687 60.5476 12.9517C61.0646 11.9347 61.7919 11.1449 62.7294 10.5824C63.6669 10.0199 64.7749 9.73864 66.0533 9.73864C67.3317 9.73864 68.4396 10.0199 69.3771 10.5824C70.3146 11.1449 71.0391 11.9347 71.5504 12.9517C72.0675 13.9687 72.326 15.1534 72.326 16.5057C72.326 17.858 72.0675 19.0398 71.5504 20.0511C71.0391 21.0625 70.3146 21.8494 69.3771 22.4119C68.4396 22.9744 67.3317 23.2557 66.0533 23.2557ZM66.0703 20.7841C66.7635 20.7841 67.343 20.5937 67.8089 20.2131C68.2749 19.8267 68.6214 19.3097 68.8487 18.6619C69.0817 18.0142 69.1982 17.2926 69.1982 16.4972C69.1982 15.696 69.0817 14.9716 68.8487 14.3239C68.6214 13.6705 68.2749 13.1506 67.8089 12.7642C67.343 12.3778 66.7635 12.1847 66.0703 12.1847C65.3601 12.1847 64.7692 12.3778 64.2976 12.7642C63.8317 13.1506 63.4822 13.6705 63.2493 14.3239C63.022 14.9716 62.9084 15.696 62.9084 16.4972C62.9084 17.2926 63.022 18.0142 63.2493 18.6619C63.4822 19.3097 63.8317 19.8267 64.2976 20.2131C64.7692 20.5937 65.3601 20.7841 66.0703 20.7841ZM78.0298 5.54545V23H74.9446V5.54545H78.0298Z" fill="black"/>
<path d="M82.2614 6.97727V5.54545H94.9176V6.97727H89.3864V23H87.7926V6.97727H82.2614ZM100.065 23.2983C99.2756 23.2983 98.554 23.1449 97.9006 22.8381C97.2472 22.5256 96.7273 22.0767 96.3409 21.4915C95.9545 20.9006 95.7614 20.1847 95.7614 19.3438C95.7614 18.696 95.8835 18.1506 96.1278 17.7074C96.3722 17.2642 96.7188 16.9006 97.1676 16.6165C97.6165 16.3324 98.1477 16.108 98.7614 15.9432C99.375 15.7784 100.051 15.6506 100.79 15.5597C101.523 15.4687 102.142 15.3892 102.648 15.321C103.159 15.2528 103.548 15.1449 103.815 14.9972C104.082 14.8494 104.216 14.6108 104.216 14.2812V13.9744C104.216 13.0824 103.949 12.3807 103.415 11.8693C102.886 11.3523 102.125 11.0938 101.131 11.0938C100.188 11.0938 99.4176 11.3011 98.821 11.7159C98.2301 12.1307 97.8153 12.6193 97.5767 13.1818L96.1364 12.6619C96.4318 11.946 96.8409 11.375 97.3636 10.9489C97.8864 10.517 98.4716 10.2074 99.1193 10.0199C99.767 9.8267 100.423 9.73011 101.088 9.73011C101.588 9.73011 102.108 9.79545 102.648 9.92614C103.193 10.0568 103.699 10.2841 104.165 10.608C104.631 10.9261 105.009 11.3722 105.298 11.946C105.588 12.5142 105.733 13.2358 105.733 14.1108V23H104.216V20.929H104.122C103.94 21.3153 103.67 21.6903 103.312 22.054C102.955 22.4176 102.506 22.7159 101.966 22.9489C101.426 23.1818 100.793 23.2983 100.065 23.2983ZM100.27 21.9091C101.077 21.9091 101.776 21.7301 102.366 21.3722C102.957 21.0142 103.412 20.5398 103.73 19.9489C104.054 19.3523 104.216 18.696 104.216 17.9801V16.0881C104.102 16.196 103.912 16.2926 103.645 16.3778C103.384 16.4631 103.08 16.5398 102.733 16.608C102.392 16.6705 102.051 16.7244 101.71 16.7699C101.369 16.8153 101.062 16.8551 100.79 16.8892C100.051 16.9801 99.4205 17.1222 98.8977 17.3153C98.375 17.5085 97.9744 17.7756 97.696 18.1165C97.4176 18.4517 97.2784 18.8835 97.2784 19.4119C97.2784 20.2074 97.5625 20.8239 98.1307 21.2614C98.6989 21.6932 99.4119 21.9091 100.27 21.9091ZM111.286 5.54545V23H109.768V5.54545H111.286ZM116.68 18.0568L116.663 16.071H117.004L123.141 9.90909H125.058L118.999 15.9773L118.862 16.0028L116.68 18.0568ZM115.3 23V5.54545H116.817V23H115.3ZM123.456 23L118.138 16.2756L119.229 15.2273L125.399 23H123.456Z" fill="black"/>
</svg>
